<svg xmlns="http://www.w3.org/2000/svg" width="283.034" height="106.465" viewBox="0 0 283.034 106.465">
  <g id="Group_1" data-name="Group 1" transform="translate(-150.739 -187.71)">
    <path transform="translate(272.583 258.965)" fill="white" id="Path_3" data-name="Path 3" d="M9.345-12.308a.431.431,0,0,1,.456-.456H20.057a.914.914,0,0,0,.912-.912v-4.558a.914.914,0,0,0-.912-.912H9.8a.431.431,0,0,1-.456-.456v-5.47a.431.431,0,0,1,.456-.456H20.422a.914.914,0,0,0,.912-.912V-31a.914.914,0,0,0-.912-.912H3.875A.914.914,0,0,0,2.963-31V-.912A.914.914,0,0,0,3.875,0H20.6a.914.914,0,0,0,.912-.912V-5.47a.914.914,0,0,0-.912-.912H9.8a.431.431,0,0,1-.456-.456ZM41.254-8.615c-.365,2.462-1.6,3.191-3.6,3.191-2.325,0-3.373-.957-3.556-2.553a34.274,34.274,0,0,1,0-6.838c.228-1.732,1.231-2.553,3.51-2.553,2.1,0,3.51.957,3.647,3.191a.807.807,0,0,0,.866.729h4.057a.807.807,0,0,0,.775-.912c0-5.652-4.285-8.934-9.3-8.934-5.607,0-8.889,3.692-9.481,8.479a34.274,34.274,0,0,0,0,6.838C28.764-3.191,32.046.5,37.652.5c5.014,0,9.3-3.373,9.3-8.934a.807.807,0,0,0-.775-.912H42.12A.834.834,0,0,0,41.254-8.615Zm18.279-6.2c.274-1.732,1.231-2.553,3.51-2.553,2.325,0,3.328,1.048,3.556,2.553a28.592,28.592,0,0,1,0,6.838c-.228,1.5-1.231,2.553-3.556,2.553-2.279,0-3.282-.957-3.51-2.553A28.592,28.592,0,0,1,59.533-14.815ZM53.607-7.977C54.2-3.191,57.482.5,63.088.5c5.561,0,8.843-3.692,9.436-8.479a34.274,34.274,0,0,0,0-6.838c-.593-4.786-3.875-8.479-9.482-8.479-5.561,0-8.843,3.692-9.436,8.479A34.274,34.274,0,0,0,53.607-7.977Zm45.174-6.838a8.311,8.311,0,0,0-8.433-8.479c-2.735,0-3.692,1.6-5.014,1.6-.638,0-.866-.456-1.231-.775a1.056,1.056,0,0,0-.821-.319H81a.914.914,0,0,0-.912.912V-.912A.914.914,0,0,0,81,0h4.1a.914.914,0,0,0,.912-.912V-15.043c0-1.368,1.276-2.507,3.419-2.507,2.188,0,3.419,1.185,3.419,2.689V-.912A.914.914,0,0,0,93.767,0h4.1a.914.914,0,0,0,.912-.912ZM113.14-31.635a.75.75,0,0,0-.729-.729h-4.923a.75.75,0,0,0-.729.729v4.923a.72.72,0,0,0,.729.729h4.923a.72.72,0,0,0,.729-.729Zm-.228,9.573a.75.75,0,0,0-.729-.729h-4.467a.75.75,0,0,0-.729.729V-.729a.75.75,0,0,0,.729.729h4.467a.75.75,0,0,0,.729-.729Zm22.336-4.376a.914.914,0,0,0,.912-.912v-4.1a.914.914,0,0,0-.912-.912h-2.735a8.447,8.447,0,0,0-8.661,8.342v.912a.431.431,0,0,1-.456.456H119.75a.914.914,0,0,0-.912.912V-18.1a.914.914,0,0,0,.912.912H123.4a.431.431,0,0,1,.456.456V-.912a.914.914,0,0,0,.912.912h4.1a.914.914,0,0,0,.912-.912V-16.729a.431.431,0,0,1,.456-.456h5.47a.914.914,0,0,0,.912-.912v-3.647a.914.914,0,0,0-.912-.912h-5.47a.431.431,0,0,1-.456-.456v-.821a2.557,2.557,0,0,1,2.735-2.507Zm11.3,4.33a.855.855,0,0,0-.866-.684h-4.7a.8.8,0,0,0-.866,1.048l7.567,20.285a1.109,1.109,0,0,1,0,1L144.5,8.068a.8.8,0,0,0,.866,1.048h4.194a.855.855,0,0,0,.866-.684L161.14-21.744a.8.8,0,0,0-.866-1.048h-4.6a.824.824,0,0,0-.866.684L151.111-9.162c-.091.365-.41.365-.547,0Z"/>
    <path fill="white" id="Path_1" data-name="Path 1" d="M209.464,233.835c-.824-1.275-5.894-8.717-7.484-11.1l4.041-23.858,5.45-10.337,5.492,15.377,1.5,8.512,2,14.27-10.2,5.732S209.847,233.226,209.464,233.835Zm16.467,4.414c-.543.254-5.754,2.523-6.228,2.7-.129.417-2.365,5.81-3.12,7.78,1.788-.68,5.791-2.065,5.791-2.065l3.606.315s5.324.224,7.044.289c-.824-1.518-3.629-6.79-3.739-7.076C228.993,240.038,226.359,238.528,225.931,238.249Zm10.5,9.172,25.025,15.67-19.97-17.928c-.849.015-2.371.034-2.686.042C238.587,245.41,237.376,246.53,236.431,247.421Zm-16.664-35.174,1.925,13.789.409-.264,4.881-.582-6.49-23.385-7.829-13.87,5.575,15.661Zm5.974,57.964-5.143,1.366h-3.719l.949-1.317h2.641c.1-.07,3.37-.877,4.555-1.18l1.65-6.273-3.131-9.917,1.549-4.672c-.923-.076-2.387-.239-2.581-.25-.216.083-8.281,2.979-8.281,2.979l4.486-10.975L226,236.808l4.251,2.444,4.319,8.116,3.666-3.489,3.389-.049-1.366-11.991L232.72,225.9l-.664.034s-9.291,1.077-9.553,1.112c-.185.123-10.952,6.172-11.263,6.341-.137.289-1.628,3-1.628,3l-7.943-11.767v0l-9.253-11.7L175.722,201.5,156.61,190.877,188.5,217.3l14.846,21.947,1.344,5.522-1.052,1.282s-1.472-6.042-1.514-6.288c-.129-.182-14.459-21.412-14.588-21.564-.125-.091-31.552-26.135-36.8-30.489l6.038,20.546-5.143-4.687L159.52,221.7l.027.151-6.729-6.127,9,20.792.084.351L176.177,256l14.459,5.672,8.608-1.733,1.21-1.719,7.469,12.26-.061.008,12.087,23.685,6.9-3.084,5.97-4.825,5.009-.712L242.936,284l-17.2-13.785Z"/>
  </g>
</svg>